<mxfile host="app.diagrams.net" agent="Mozilla/5.0 (X11; Ubuntu; Linux x86_64; rv:137.0) Gecko/20100101 Firefox/137.0" version="26.2.12">
  <diagram name="Page-1" id="54c02804-9d69-ba3f-8aca-1021b27b8050">
    <mxGraphModel dx="1362" dy="795" grid="1" gridSize="10" guides="1" tooltips="1" connect="1" arrows="1" fold="1" page="1" pageScale="1" pageWidth="1100" pageHeight="850" background="none" math="0" shadow="0">
      <root>
        <mxCell id="0" />
        <mxCell id="1" parent="0" />
        <mxCell id="7c3a617817c5cf35-16" value="" style="html=1;shadow=0;dashed=0;align=center;verticalAlign=middle;shape=mxgraph.arrows2.arrow;dy=0.6;dx=40;direction=north;notch=0;strokeWidth=2;fillColor=#CCCCCC;fontSize=14;fontColor=#000000;strokeColor=none;" parent="1" vertex="1">
          <mxGeometry x="85" y="595" width="160" height="60" as="geometry" />
        </mxCell>
        <mxCell id="7c3a617817c5cf35-4" value="3-6 жаш" style="verticalLabelPosition=bottom;verticalAlign=top;html=1;shape=mxgraph.infographic.shadedCube;isoAngle=15;fillColor=#10739E;strokeColor=none;fontFamily=Helvetica;fontSize=20;align=center;strokeWidth=2;" parent="1" vertex="1">
          <mxGeometry x="105" y="445" width="120" height="110" as="geometry" />
        </mxCell>
        <mxCell id="7c3a617817c5cf35-7" value="6-10 жаш" style="verticalLabelPosition=bottom;verticalAlign=top;html=1;shape=mxgraph.infographic.shadedCube;isoAngle=15;fillColor=#F2931E;strokeColor=none;fontFamily=Helvetica;fontSize=20;align=center;strokeWidth=2;" parent="1" vertex="1">
          <mxGeometry x="245" y="420" width="120" height="135" as="geometry" />
        </mxCell>
        <mxCell id="7c3a617817c5cf35-8" value="10-15 жаш" style="verticalLabelPosition=bottom;verticalAlign=top;html=1;shape=mxgraph.infographic.shadedCube;isoAngle=15;fillColor=#AE4132;strokeColor=none;fontFamily=Helvetica;fontSize=20;align=center;strokeWidth=2;" parent="1" vertex="1">
          <mxGeometry x="400" y="390" width="120" height="165" as="geometry" />
        </mxCell>
        <mxCell id="7c3a617817c5cf35-9" value="15-17жаш" style="verticalLabelPosition=bottom;verticalAlign=top;html=1;shape=mxgraph.infographic.shadedCube;isoAngle=15;fillColor=#23445D;strokeColor=none;fontFamily=Helvetica;fontSize=20;align=center;strokeWidth=2;" parent="1" vertex="1">
          <mxGeometry x="553" y="360" width="120" height="200" as="geometry" />
        </mxCell>
        <mxCell id="7c3a617817c5cf35-10" value="15-19 жаш" style="verticalLabelPosition=bottom;verticalAlign=top;html=1;shape=mxgraph.infographic.shadedCube;isoAngle=15;fillColor=#12AAB5;strokeColor=none;fontFamily=Helvetica;fontSize=20;align=center;strokeWidth=2;" parent="1" vertex="1">
          <mxGeometry x="700" y="325" width="121" height="235" as="geometry" />
        </mxCell>
        <mxCell id="7c3a617817c5cf35-11" value="&lt;h1&gt;дошкольный&lt;/h1&gt;&lt;p&gt;Балдардын социалдык, эмоционалдык жана моторикалык өнүгүүсүнө багытталган билим берүү. Окуучулар оюн, чыгармачылык, жана негизги түшүнүктөрдү алат, бул алардын жалпы өнүгүшүнө жардам берет.&lt;/p&gt;" style="text;html=1;spacing=5;spacingTop=-20;whiteSpace=wrap;overflow=hidden;strokeWidth=2;fillColor=none;gradientColor=none;fontSize=14;align=center;" parent="1" vertex="1">
          <mxGeometry x="40" y="655" width="240" height="185" as="geometry" />
        </mxCell>
        <mxCell id="7c3a617817c5cf35-12" value="&lt;h1&gt;Начальное&lt;/h1&gt;&lt;p&gt;Негизги окутуу ыкмаларын жана базалык билимдерди үйрөнүү. Бул деңгээлде окуучулар окуу-жазуу, эсеп жүргүзүү жана логикалык ой жүгүртүүнүн негиздерин өздөштүрөт.&lt;/p&gt;" style="text;html=1;spacing=5;spacingTop=-20;whiteSpace=wrap;overflow=hidden;strokeWidth=2;fillColor=none;gradientColor=none;fontSize=14;align=center;" parent="1" vertex="1">
          <mxGeometry x="155" y="190" width="300" height="155" as="geometry" />
        </mxCell>
        <mxCell id="7c3a617817c5cf35-13" value="&lt;h1&gt;Основное&lt;/h1&gt;&lt;p&gt;Негизги билимдерди (тил, математика, жаратылыш илимдери, коомдук илимдер) өздөштүрүү. Окуучунун жалпы билим деңгээлин жогорулатуу жана социалдык көндүмдөрдү өнүктүрүүгө басым жасалат.&lt;/p&gt;" style="text;html=1;spacing=5;spacingTop=-20;whiteSpace=wrap;overflow=hidden;strokeWidth=2;fillColor=none;gradientColor=none;fontSize=14;align=center;" parent="1" vertex="1">
          <mxGeometry x="330" y="655" width="260" height="185" as="geometry" />
        </mxCell>
        <mxCell id="7c3a617817c5cf35-14" value="&lt;h1&gt;Орто Профессионалдык&lt;/h1&gt;&lt;p&gt;Практикалык жана теоретикалык билимдин бирикмеси. Мурда окуучулар кесиптик көндүмдөрдү жана практикалык тажрыйбаны өздөштүрүп, эмгек рыногундагы реалдуу кырдаалдарга даярдалат.&lt;/p&gt;" style="text;html=1;spacing=5;spacingTop=-20;whiteSpace=wrap;overflow=hidden;strokeWidth=2;fillColor=none;gradientColor=none;fontSize=14;align=center;" parent="1" vertex="1">
          <mxGeometry x="600" y="655" width="330" height="195" as="geometry" />
        </mxCell>
        <mxCell id="7c3a617817c5cf35-15" value="&lt;h1&gt;Орто&lt;/h1&gt;&lt;p&gt;Жалпы билим берүү, негизги илимий жана гуманитардык предметтерди камтыйт. Бул деңгээл окуучунун аналитикалык жана логикалык ой жүгүртүүсүн өнүктүрүүгө багытталган.&lt;/p&gt;" style="text;html=1;spacing=5;spacingTop=-20;whiteSpace=wrap;overflow=hidden;strokeWidth=2;fillColor=none;gradientColor=none;fontSize=14;align=center;" parent="1" vertex="1">
          <mxGeometry x="428" y="130" width="370" height="140" as="geometry" />
        </mxCell>
        <mxCell id="7c3a617817c5cf35-18" value="" style="html=1;shadow=0;dashed=0;align=center;verticalAlign=middle;shape=mxgraph.arrows2.arrow;dy=0.6;dx=40;direction=north;notch=0;strokeWidth=2;fillColor=#CCCCCC;fontSize=14;fontColor=#000000;strokeColor=none;" parent="1" vertex="1">
          <mxGeometry x="380" y="595" width="160" height="60" as="geometry" />
        </mxCell>
        <mxCell id="7c3a617817c5cf35-19" value="" style="html=1;shadow=0;dashed=0;align=center;verticalAlign=middle;shape=mxgraph.arrows2.arrow;dy=0.6;dx=40;direction=north;notch=0;strokeWidth=2;fillColor=#CCCCCC;fontSize=14;fontColor=#000000;strokeColor=none;" parent="1" vertex="1">
          <mxGeometry x="680" y="595" width="160" height="60" as="geometry" />
        </mxCell>
        <mxCell id="7c3a617817c5cf35-20" value="" style="html=1;shadow=0;dashed=0;align=center;verticalAlign=middle;shape=mxgraph.arrows2.arrow;dy=0.6;dx=40;direction=north;notch=0;strokeWidth=2;fillColor=#CCCCCC;fontSize=14;fontColor=#000000;strokeColor=none;flipV=1;" parent="1" vertex="1">
          <mxGeometry x="225" y="340" width="160" height="60" as="geometry" />
        </mxCell>
        <mxCell id="7c3a617817c5cf35-21" value="" style="html=1;shadow=0;dashed=0;align=center;verticalAlign=middle;shape=mxgraph.arrows2.arrow;dy=0.6;dx=40;direction=north;notch=0;strokeWidth=2;fillColor=#CCCCCC;fontSize=14;fontColor=#000000;strokeColor=none;flipV=1;" parent="1" vertex="1">
          <mxGeometry x="533" y="280" width="160" height="60" as="geometry" />
        </mxCell>
        <mxCell id="wRM-bC_H4oXRzF1QBMHu-5" value="18-23 жаш" style="verticalLabelPosition=bottom;verticalAlign=top;html=1;shape=mxgraph.infographic.shadedCube;isoAngle=15;fillColor=#6a00ff;strokeColor=#3700CC;fontFamily=Helvetica;fontSize=20;align=center;strokeWidth=2;fontColor=light-dark(#FFFFFF,#F1F1F1);" vertex="1" parent="1">
          <mxGeometry x="854" y="280" width="120" height="280" as="geometry" />
        </mxCell>
        <mxCell id="wRM-bC_H4oXRzF1QBMHu-7" value="" style="html=1;shadow=0;dashed=0;align=center;verticalAlign=middle;shape=mxgraph.arrows2.arrow;dy=0.6;dx=40;direction=north;notch=0;strokeWidth=2;fillColor=#CCCCCC;fontSize=14;fontColor=#000000;strokeColor=none;flipV=1;" vertex="1" parent="1">
          <mxGeometry x="834" y="200" width="160" height="60" as="geometry" />
        </mxCell>
        <mxCell id="wRM-bC_H4oXRzF1QBMHu-8" value="&lt;h1&gt;Высшее&lt;/h1&gt;&lt;p&gt;Жогорку окуу жайларда терең илимий жана академиялык билим алуу. Бул деңгээлде студенттер өз адистигин тереңдетип, илимий изилдөөлөрдү жүргүзүүгө жана кесиптик чөйрөдө иштөөгө даярдалат.&lt;/p&gt;" style="text;html=1;spacing=5;spacingTop=-20;whiteSpace=wrap;overflow=hidden;strokeWidth=2;fillColor=none;gradientColor=none;fontSize=14;align=center;" vertex="1" parent="1">
          <mxGeometry x="750" y="50" width="350" height="150" as="geometry" />
        </mxCell>
      </root>
    </mxGraphModel>
  </diagram>
</mxfile>
